<svg width="111" height="116" xmlns="http://www.w3.org/2000/svg" xmlns:xlink="http://www.w3.org/1999/xlink" xml:space="preserve" overflow="hidden"><defs><clipPath id="clip0"><rect x="62" y="320" width="111" height="116"/></clipPath><clipPath id="clip1"><rect x="62" y="320" width="111" height="116"/></clipPath><clipPath id="clip2"><rect x="63" y="321" width="110" height="114"/></clipPath><clipPath id="clip3"><rect x="63" y="321" width="110" height="114"/></clipPath></defs><g clip-path="url(#clip0)" transform="translate(-62 -320)"><g clip-path="url(#clip1)"><g clip-path="url(#clip2)"><g clip-path="url(#clip3)"><g><path d="M17.977 2.4961 82.02 2.4961C83.1255 2.4961 84.02 3.39063 84.02 4.4961L84.02 95.5041C84.02 96.6096 83.1255 97.5041 82.02 97.5041L17.977 97.5041C16.8715 97.5041 15.977 96.6096 15.977 95.5041L15.977 4.4961C15.977 3.3906 16.8715 2.4961 17.977 2.4961ZM32.551 87.1721C31.4455 87.1721 30.551 86.2776 30.551 85.1721 30.551 84.0666 31.4455 83.1721 32.551 83.1721L67.446 83.1721C68.5515 83.1721 69.446 84.0666 69.446 85.1721 69.446 86.2776 68.5515 87.1721 67.446 87.1721ZM32.551 78.5549C31.4455 78.5549 30.551 77.6604 30.551 76.5549 30.551 75.4494 31.4455 74.5549 32.551 74.5549L67.446 74.5549C68.5515 74.5549 69.446 75.4494 69.446 76.5549 69.446 77.6604 68.5515 78.5549 67.446 78.5549ZM32.551 69.9377C31.4455 69.9377 30.551 69.0432 30.551 67.9377 30.551 66.8322 31.4455 65.9377 32.551 65.9377L67.446 65.9377C68.5515 65.9377 69.446 66.8322 69.446 67.9377 69.446 69.0432 68.5515 69.9377 67.446 69.9377ZM37.6291 50.1717C37.8166 48.5662 38.551 47.117 39.6369 46.0311 40.5978 45.0702 41.8439 44.3827 43.2267 44.1092 42.5353 42.9412 42.1369 41.574 42.1369 40.117 42.1369 37.949 43.0197 35.9803 44.4416 34.5584 45.8635 33.1365 47.8283 32.2537 50.0002 32.2537 52.1682 32.2537 54.1369 33.1365 55.5588 34.5584 56.9807 35.9803 57.8635 37.9451 57.8635 40.117 57.8635 41.574 57.4651 42.9373 56.7737 44.1092 58.1565 44.3826 59.3948 45.0701 60.3557 46.0311 61.4495 47.1209 62.1877 48.5663 62.3713 50.1717 63.5783 48.074 64.2736 45.6444 64.2736 43.0506 64.2736 39.1092 62.6759 35.5389 60.0939 32.9566 57.5119 30.3743 53.9416 28.7769 49.9999 28.7769 46.0582 28.7769 42.4882 30.3746 39.9059 32.9566 37.3236 35.5386 35.7262 39.105 35.7262 43.0506 35.7262 45.6444 36.4176 48.074 37.6246 50.1717ZM58.4181 54.5779 58.4181 50.9724C58.4181 50.1482 58.0783 49.3982 57.5353 48.8552 56.9962 48.3122 56.2423 47.9724 55.4181 47.9724L44.5861 47.9724C43.7619 47.9724 43.0119 48.3122 42.4689 48.8552 41.9259 49.3982 41.5861 50.1482 41.5861 50.9724L41.5861 54.574C43.2541 55.7928 45.1955 56.6599 47.3009 57.0623L47.8282 57.1521 47.961 57.1678 48.004 57.1756 48.0274 57.1795 48.1602 57.199 48.1837 57.2029 48.2267 57.2107 48.4259 57.2342 48.4962 57.242 48.5392 57.2459 48.5626 57.2459 48.629 57.2537 51.3673 57.2537 51.4337 57.2459 51.4571 57.2459 51.504 57.242 51.7696 57.2107 51.8126 57.2029 51.836 57.199 51.9689 57.1795 51.9884 57.1756 52.0353 57.1678 52.1017 57.16C54.4337 56.8162 56.5861 55.9022 58.4103 54.5702ZM52.7306 37.3869C52.0353 36.6916 51.0665 36.258 50.0001 36.258 48.9337 36.258 47.9689 36.6916 47.2696 37.3869 46.5743 38.0822 46.1407 39.051 46.1407 40.1174 46.1407 41.1838 46.5743 42.1486 47.2696 42.8479 47.9571 43.5354 48.9024 43.9651 49.9493 43.9768L50.0509 43.9768C51.0978 43.9651 52.0431 43.5354 52.7306 42.8479 53.4259 42.1526 53.8595 41.1838 53.8595 40.1174 53.8595 39.051 53.4259 38.0862 52.7306 37.3869ZM50.0001 24.7779C55.0431 24.7779 59.6134 26.8248 62.9221 30.1295 66.2268 33.4342 68.2737 38.0045 68.2737 43.0515 68.2737 48.0945 66.2268 52.6648 62.9221 55.9735 62.5471 56.3485 62.1604 56.704 61.7541 57.0438L61.6369 57.1415C58.4767 59.7548 54.4221 61.329 49.9999 61.329 44.9569 61.329 40.3866 59.2821 37.0779 55.9774 33.7732 52.6727 31.7263 48.1024 31.7263 43.0554 31.7263 38.0124 33.7732 33.4421 37.0779 30.1334 40.3826 26.8287 44.9529 24.7818 49.9999 24.7818ZM66.7191 6.4969 80.0241 19.8019 80.0241 6.4969ZM80.0241 26.6299 61.8911 26.6299C60.7856 26.6299 59.8911 25.7354 59.8911 24.6299L59.8911 6.4969 19.9811 6.4969 19.9811 93.5009 80.0241 93.5009 80.0241 26.6259ZM77.196 22.6299 63.891 9.3249 63.891 22.6299Z" fill="#000000" fill-rule="nonzero" fill-opacity="1" transform="matrix(1 0 0 1.00068 68 331.007)"/><text fill="#000000" fill-opacity="1" font-family="Helvetica,Helvetica_MSFontService,sans-serif" font-style="normal" font-variant="normal" font-weight="700" font-stretch="normal" font-size="5" text-anchor="start" direction="ltr" writing-mode="lr-tb" unicode-bidi="normal" text-decoration="none" transform="matrix(1 0 0 1.00068 68 449)">Created by Liberus</text><text fill="#000000" fill-opacity="1" font-family="Helvetica,Helvetica_MSFontService,sans-serif" font-style="normal" font-variant="normal" font-weight="700" font-stretch="normal" font-size="5" text-anchor="start" direction="ltr" writing-mode="lr-tb" unicode-bidi="normal" text-decoration="none" transform="matrix(1 0 0 1.00068 68 454)">from Noun Project</text></g></g></g></g></g></svg>