<svg width="111" height="80" xmlns="http://www.w3.org/2000/svg" xmlns:xlink="http://www.w3.org/1999/xlink" xml:space="preserve" overflow="hidden"><defs><clipPath id="clip0"><rect x="253" y="314" width="111" height="80"/></clipPath><clipPath id="clip1"><rect x="253" y="314" width="111" height="80"/></clipPath><clipPath id="clip2"><rect x="254" y="315" width="109" height="79"/></clipPath><clipPath id="clip3"><rect x="254" y="315" width="109" height="79"/></clipPath></defs><g clip-path="url(#clip0)" transform="translate(-253 -314)"><g clip-path="url(#clip1)"><g clip-path="url(#clip2)"><g clip-path="url(#clip3)"><g><path d="M92.6579 25.4505 63.763 49.5455 92.6579 73.6404ZM91.2142 77.392C90.4091 78.139 89.333 78.5997 88.1602 78.5997L10.9307 78.5997C9.76174 78.5997 8.68958 78.143 7.88833 77.4037L38.3241 52.0235 42.9729 55.902C44.8038 57.4271 47.1997 58.1858 49.5841 58.1742 51.9646 58.1626 54.3644 57.3884 56.2069 55.8478L60.7938 52.0235ZM6.43298 73.6606 35.3556 49.5459 6.43298 25.4311ZM7.88843 21.6884C8.68967 20.9452 9.76184 20.4924 10.9308 20.4924L88.1603 20.4924C89.337 20.4924 90.413 20.953 91.2143 21.7001L59.6023 48.0633 59.5597 48.0981 53.7769 52.921C52.6312 53.8771 51.1061 54.3571 49.5732 54.3648 48.0443 54.3725 46.5308 53.908 45.4083 52.9752L39.5636 48.102 39.5132 48.0594Z" fill="#000000" fill-rule="evenodd" fill-opacity="1" transform="matrix(1 0 0 1.01008 258.955 302.665)"/><text fill="#000000" fill-opacity="1" font-family="Helvetica,Helvetica_MSFontService,sans-serif" font-style="normal" font-variant="normal" font-weight="700" font-stretch="normal" font-size="5" text-anchor="start" direction="ltr" writing-mode="lr-tb" unicode-bidi="normal" text-decoration="none" transform="matrix(0.990909 0 0 1.0009 258.955 420)">Created by Ilyas Aji Furqon</text><text fill="#000000" fill-opacity="1" font-family="Helvetica,Helvetica_MSFontService,sans-serif" font-style="normal" font-variant="normal" font-weight="700" font-stretch="normal" font-size="5" text-anchor="start" direction="ltr" writing-mode="lr-tb" unicode-bidi="normal" text-decoration="none" transform="matrix(0.990909 0 0 1.0009 258.955 425)">from Noun Project</text></g></g></g></g></g></svg>